<svg xmlns="http://www.w3.org/2000/svg" viewBox="0 0 512 512">
  <rect width="512" height="512" rx="112" fill="#0e0e0e"/>
  <rect x="32" y="32" width="448" height="448" rx="96" fill="none" stroke="#cefc22" stroke-width="18"/>
  <path d="M156 170h186v38H221l-10 65c15-10 35-15 58-15 30 0 55 9 74 28 20 18 30 43 30 75 0 34-11 61-34 82-22 20-52 30-89 30-34 0-62-8-84-24-22-17-36-40-42-69h53c5 15 14 26 28 35 13 8 29 12 48 12 22 0 39-6 52-18 14-13 21-30 21-51 0-20-7-36-22-49-14-13-33-19-57-19-13 0-25 2-35 6-9 4-20 11-31 22l-43-11 24-177Z" fill="#cefc22"/>
  <path d="M182 104h146v34H182z" fill="#cefc22"/>
</svg>
